<?xml version="1.0" standalone="no"?>
<!DOCTYPE svg PUBLIC "-//W3C//DTD SVG 20010904//EN"
 "http://www.w3.org/TR/2001/REC-SVG-20010904/DTD/svg10.dtd">
<svg version="1.0" xmlns="http://www.w3.org/2000/svg"
 width="2466.000000pt" height="2466.000000pt" viewBox="0 0 2466.000000 2466.000000"
 preserveAspectRatio="xMidYMid meet">
<metadata>
Created by potrace 1.14, written by Peter Selinger 2001-2017
</metadata>
<g transform="translate(0.000000,2466.000000) scale(0.100000,-0.100000)"
fill="#000000" stroke="none">
<path d="M13887 20424 c-1 -1 -76 -5 -167 -9 -91 -4 -183 -8 -205 -10 -65 -4
-187 -15 -225 -20 -19 -2 -62 -7 -95 -10 -59 -6 -117 -13 -165 -20 -14 -2 -45
-7 -70 -10 -90 -12 -174 -25 -205 -31 -11 -3 -36 -7 -55 -10 -19 -3 -54 -10
-78 -15 -23 -5 -59 -12 -79 -15 -30 -5 -96 -20 -268 -60 -11 -2 -31 -6 -45 -9
-49 -9 -387 -104 -500 -140 -319 -103 -629 -222 -913 -352 -167 -76 -568 -284
-598 -309 -8 -8 -19 -14 -24 -14 -26 0 -529 -322 -715 -458 -25 -18 -56 -41
-68 -50 -25 -18 -114 -86 -171 -130 -71 -56 -216 -175 -221 -181 -3 -4 -14
-14 -26 -22 -58 -39 -287 -252 -479 -445 -241 -241 -399 -418 -585 -654 -28
-36 -56 -72 -63 -80 -14 -18 -107 -142 -164 -221 -97 -132 -403 -606 -403
-623 0 -2 -17 -33 -38 -67 -22 -35 -72 -127 -112 -204 -40 -77 -75 -142 -76
-144 -3 -3 -122 12 -181 23 -10 2 -43 7 -73 11 -30 3 -66 8 -80 10 -61 9 -266
25 -370 30 -99 5 -469 5 -546 1 -138 -9 -261 -17 -284 -21 -14 -2 -52 -6 -85
-10 -33 -3 -105 -13 -160 -21 -55 -8 -113 -17 -130 -20 -16 -2 -39 -6 -50 -8
-11 -2 -60 -11 -110 -20 -108 -20 -472 -113 -605 -155 -290 -90 -617 -221
-870 -348 -113 -57 -223 -113 -245 -125 -76 -43 -300 -182 -360 -223 -33 -23
-98 -68 -145 -100 -72 -50 -257 -188 -294 -220 -6 -5 -43 -37 -81 -70 -39 -33
-86 -74 -105 -92 -19 -17 -48 -44 -65 -59 -103 -92 -348 -342 -427 -434 -25
-30 -54 -65 -65 -76 -10 -12 -31 -39 -48 -60 -16 -20 -34 -42 -40 -49 -14 -15
-61 -76 -136 -175 -252 -336 -416 -616 -629 -1075 -41 -90 -179 -427 -185
-455 -2 -8 -22 -67 -45 -130 -36 -103 -74 -232 -86 -299 -3 -13 -18 -74 -34
-135 -16 -61 -31 -124 -34 -141 -11 -57 -26 -140 -31 -165 -3 -14 -7 -41 -10
-60 -3 -19 -7 -44 -9 -55 -2 -11 -7 -42 -10 -70 -4 -27 -9 -63 -11 -80 -44
-330 -59 -705 -41 -1040 13 -244 31 -416 62 -595 5 -28 11 -71 19 -126 7 -52
35 -184 45 -219 5 -16 11 -43 14 -60 2 -16 9 -45 15 -63 5 -18 10 -35 10 -37
3 -32 65 -247 117 -410 41 -124 151 -411 207 -535 29 -67 165 -343 176 -360 6
-8 34 -58 62 -110 123 -225 312 -507 492 -734 154 -194 266 -318 456 -506 97
-96 192 -189 211 -205 19 -17 71 -62 115 -100 458 -401 1105 -781 1715 -1008
359 -133 773 -240 1150 -296 133 -19 179 -25 315 -36 39 -4 89 -8 111 -10 l42
-4 0 2390 c0 1314 2 2392 5 2396 3 3 257 5 564 5 307 -1 831 -1 1166 -1 l607
-1 0 -2399 0 -2399 798 2 797 1 5 3770 5 3770 1164 -2 c639 -1 1165 -4 1168
-7 2 -2 5 -1698 6 -3768 l2 -3763 802 -1 803 -2 2 5292 3 5291 1166 0 1166 0
1 -5275 c0 -2901 1 -5282 1 -5290 1 -13 315 -15 2804 -14 1541 1 2826 4 2854
8 29 3 70 8 90 11 21 3 56 8 78 11 33 4 186 34 245 48 165 39 369 115 543 202
92 46 258 142 267 154 3 4 16 13 29 20 14 7 30 17 35 21 6 5 46 36 89 68 158
119 332 287 452 436 17 21 36 44 43 51 47 49 215 322 281 458 109 223 200 490
226 666 4 25 8 47 10 51 2 3 7 31 10 63 4 31 8 67 11 79 22 113 22 519 -1 635
-1 10 -6 45 -10 77 -9 72 -9 73 -29 156 -8 37 -17 78 -20 90 -2 13 -9 36 -15
52 -6 15 -9 27 -6 27 4 0 -63 202 -95 280 -12 30 -44 101 -71 158 -297 614
-829 1097 -1474 1337 -55 21 -104 38 -110 40 -5 1 -17 4 -25 8 -18 6 -134 37
-158 42 -9 1 -35 8 -57 13 -38 10 -60 14 -150 27 -22 3 -49 7 -60 10 -23 5
-126 15 -206 20 -30 2 -59 4 -65 4 -6 1 5 49 28 119 22 64 41 124 44 132 2 8
20 69 40 135 20 66 40 136 45 155 4 19 24 98 43 175 19 77 37 151 39 165 3 14
12 54 20 90 8 36 18 83 21 105 4 22 8 47 11 55 2 8 6 32 10 54 3 21 7 41 9 45
3 4 7 29 10 56 3 28 8 64 11 80 12 73 15 93 20 145 4 30 8 62 11 70 2 8 6 40
9 70 3 30 7 71 10 90 9 72 23 259 31 410 6 122 6 587 -1 705 -9 167 -24 385
-30 425 -2 14 -7 52 -10 85 -5 54 -8 76 -20 165 -2 14 -7 50 -11 80 -4 30 -8
64 -10 75 -1 11 -5 36 -9 55 -3 19 -8 49 -11 65 -5 34 -54 289 -61 320 -2 11
-6 30 -9 42 -2 12 -16 71 -30 130 -14 60 -27 115 -29 123 -17 76 -78 289 -127
440 -22 68 -41 131 -43 140 -10 47 -169 455 -248 635 -59 136 -199 427 -251
520 -12 22 -41 76 -65 120 -104 191 -422 696 -491 778 -6 7 -47 62 -92 122
-297 402 -727 871 -1072 1170 -38 33 -81 71 -95 84 -14 13 -46 40 -71 60 -25
20 -47 38 -50 42 -3 3 -39 32 -80 64 -41 33 -77 62 -80 65 -3 3 -21 17 -40 30
-19 13 -37 27 -40 30 -7 9 -158 121 -215 160 -27 18 -52 36 -55 39 -3 3 -13
11 -22 16 -9 6 -63 42 -120 80 -108 74 -113 77 -174 113 -22 12 -59 36 -84 52
-196 126 -623 351 -900 473 -425 188 -928 361 -1284 442 -10 2 -55 13 -100 24
-91 23 -301 66 -360 75 -21 4 -41 8 -45 10 -3 2 -28 6 -56 10 -27 3 -88 12
-135 20 -47 8 -110 17 -140 21 -30 4 -66 8 -80 10 -14 2 -54 7 -90 10 -36 4
-77 8 -91 10 -14 2 -66 6 -115 10 -49 3 -105 8 -124 10 -89 11 -724 27 -733
19z"/>
</g>
</svg>
